<svg width="512" height="512" viewBox="0 0 512 512" xmlns="http://www.w3.org/2000/svg">
  <rect width="512" height="512" rx="112" fill="#4A6741"/>
  <!-- 펼친 성경 -->
  <g transform="translate(256 268)">
    <path d="M-150 -70 C -110 -95, -30 -95, 0 -70 C 30 -95, 110 -95, 150 -70 L 150 80 C 110 55, 30 55, 0 80 C -30 55, -110 55, -150 80 Z"
          fill="#FBF8F1"/>
    <line x1="0" y1="-70" x2="0" y2="80" stroke="#C8956C" stroke-width="6"/>
    <g stroke="#C8B68F" stroke-width="4" stroke-linecap="round">
      <line x1="-120" y1="-55" x2="-30" y2="-50"/>
      <line x1="-120" y1="-30" x2="-30" y2="-25"/>
      <line x1="-120" y1="-5" x2="-30" y2="0"/>
      <line x1="120" y1="-55" x2="30" y2="-50"/>
      <line x1="120" y1="-30" x2="30" y2="-25"/>
      <line x1="120" y1="-5" x2="30" y2="0"/>
    </g>
  </g>
  <!-- 금빛 십자가 -->
  <g transform="translate(256 150)" fill="#E8C547">
    <rect x="-10" y="-44" width="20" height="88" rx="5"/>
    <rect x="-32" y="-22" width="64" height="20" rx="5"/>
  </g>
</svg>
